<?xml version="1.0" standalone="no"?>
<!DOCTYPE svg PUBLIC "-//W3C//DTD SVG 20010904//EN"
 "http://www.w3.org/TR/2001/REC-SVG-20010904/DTD/svg10.dtd">
<svg version="1.0" xmlns="http://www.w3.org/2000/svg"
 width="288.000000pt" height="288.000000pt" viewBox="0 0 288.000000 288.000000"
 preserveAspectRatio="xMidYMid meet">
<metadata>
Created by potrace 1.11, written by Peter Selinger 2001-2013
</metadata>
<g transform="translate(0.000000,288.000000) scale(0.100000,-0.100000)"
fill="#000000" stroke="none">
<path d="M680 2379 c-46 -19 -64 -48 -68 -115 -4 -59 -3 -64 31 -100 l35 -39
291 -1 c160 0 295 -4 299 -8 4 -4 7 -371 7 -815 0 -702 2 -810 15 -826 47 -57
206 -73 298 -30 31 14 53 32 57 45 4 13 7 384 7 826 0 744 1 804 16 805 9 0
141 1 292 2 307 2 309 3 340 70 27 60 15 132 -30 172 -22 20 -38 20 -794 22
-493 1 -780 -2 -796 -8z"/>
</g>
</svg>
